# xmcd CD database file
#
# Track frame offsets:
#	150
#	19668
#	34565
#	54223
#	71498
#	85758
#	95678
#	109615
#	123575
#	138345
#	149208
#	163900
#	180393
#	198005
#
# Disc length: 2838 seconds
#
# Revision: 0
# Processed by: cddbd v1.5.2PL0 Copyright (c) Steve Scherf et al.
# Submitted via: CDex 1.70beta2
#
DISCID=bb0b140e
DTITLE=Jazz Vocal-Woman - Jazz Vocal-Woman
DYEAR=1900
DGENRE=Jazz
TTITLE0=You'd Be So Nice To Come Home To
TTITLE1=Stardust
TTITLE2=Lover Men
TTITLE3=You don't know what love is 恋を知らないあなた
TTITLE4=Like someone in love
TTITLE5=Softly As In A Morning Sunrise 朝日のようにさわやかに
TTITLE6=Autumn Leaves 枯葉
TTITLE7=When You Wish Upon A Star 星に願いを
TTITLE8=Lover, Come Back To Me 恋人よ我に帰れ
TTITLE9=Lullaby Of Birdland
TTITLE10=But Not For Me
TTITLE11=Bye Bye Blackbird
TTITLE12=I Can't Get Started 言い出しかねて
TTITLE13=Willow Weep For You 柳はむせぶ
EXTD=
EXTT0=
EXTT1=
EXTT2=
EXTT3=
EXTT4=
EXTT5=
EXTT6=
EXTT7=
EXTT8=
EXTT9=
EXTT10=
EXTT11=
EXTT12=
EXTT13=
PLAYORDER=
